<svg width="183" height="36" viewBox="0 0 183 36" fill="none" xmlns="http://www.w3.org/2000/svg">
<path d="M0.624987 11.7624C1.59669 11.5502 11.3823 5.62369 22.5193 5.4813C23.2685 5.47561 24.0173 5.51966 24.7607 5.61315C31.1645 6.36203 31.2488 9.13739 31.6167 9.04114C32.1664 8.82163 32.6462 8.45709 33.005 7.98637C33.0327 7.81893 32.1427 4.26832 25.3369 2.53191C18.2475 0.733529 2.79517 3.98353 1.31059 5.06599C0.100241 5.84124 -0.564263 12.2529 0.624987 11.7624Z" fill="#237131"/>
<path d="M0.623779 11.7677C1.5968 11.5515 11.3824 5.62895 22.5181 5.48656C23.2673 5.48087 24.0161 5.52492 24.7595 5.61841C31.1632 6.36729 31.2476 9.14265 31.6155 9.0464C31.7632 9.00352 31.904 8.93958 32.0334 8.85654C32.0888 8.66405 30.7479 5.90187 25.3423 5.25583C15.1796 4.00593 0.0199244 10.2567 0.0278351 10.7775C0.0950765 11.479 0.282298 11.9075 0.623779 11.7677Z" fill="#115428"/>
<path d="M22.5759 32.4292C31.6891 27.7816 33.9028 17.1126 33.6681 14.6972C33.5178 13.86 32.3496 12.6549 32.0859 13.0188C31.1071 16.736 29.2824 20.1766 26.7543 23.0721C24.2261 25.9676 21.0629 28.2395 17.5117 29.7105C16.6969 30.205 19.7689 33.0594 21.8191 32.7535C22.0807 32.6709 22.3333 32.5623 22.5732 32.4292" fill="#263369"/>
<path d="M22.5759 32.428C26.0654 30.5991 28.9324 27.7739 30.8123 24.3115C31.0456 23.7736 24.282 25.5179 24.0104 25.7619C22.032 27.3646 19.846 28.6925 17.5117 29.7093C16.6969 30.2037 19.7689 33.0582 21.8191 32.7523C22.0807 32.6697 22.3333 32.5611 22.5732 32.428" fill="#1E274A"/>
<path d="M20.0444 33.4367C18.0166 33.2297 14.0849 30.6995 13.6024 25.4362C12.9155 19.8526 15.0712 10.8791 15.3797 9.54222C15.7752 7.79658 15.8662 7.76889 14.9973 7.76889C13.1383 7.76889 9.7103 9.17964 9.51517 9.95358C9.35168 10.5891 7.76162 18.5882 8.67135 24.6109C8.9295 26.6889 9.64939 28.6828 10.7783 30.4464C11.7432 31.9459 13.196 33.0664 14.8914 33.6189C16.5867 34.1714 18.4208 34.1219 20.0839 33.4788C20.0998 33.4788 20.0536 33.4367 20.0444 33.4353" fill="#ECC507"/>
<path d="M59.376 10.7109C58.2822 10.7109 57.3057 10.8984 56.4463 11.2734C55.5869 11.6406 54.8604 12.1641 54.2666 12.8438C53.6729 13.5234 53.2197 14.3359 52.9072 15.2812C52.5947 16.2188 52.4385 17.2539 52.4385 18.3867C52.4385 19.9492 52.6846 21.3164 53.1768 22.4883C53.6689 23.6523 54.4072 24.5547 55.3916 25.1953C56.3838 25.8359 57.6182 26.1562 59.0947 26.1562C59.9541 26.1562 60.7354 26.0938 61.4385 25.9688C62.1416 25.8359 62.7939 25.668 63.3955 25.4648V26.5195C62.8252 26.7305 62.1807 26.9023 61.4619 27.0352C60.751 27.168 59.9229 27.2344 58.9775 27.2344C57.2666 27.2344 55.8291 26.8672 54.665 26.1328C53.5088 25.3984 52.6377 24.3672 52.0518 23.0391C51.4658 21.7109 51.1729 20.1602 51.1729 18.3867C51.1729 17.1133 51.3564 15.9453 51.7236 14.8828C52.0908 13.8125 52.626 12.8867 53.3291 12.1055C54.04 11.3164 54.9033 10.707 55.9189 10.2773C56.9346 9.83984 58.0908 9.62109 59.3877 9.62109C60.208 9.62109 60.9893 9.70312 61.7314 9.86719C62.4814 10.0234 63.1846 10.2539 63.8408 10.5586L63.3721 11.6133C62.7393 11.3008 62.0908 11.0742 61.4268 10.9336C60.7627 10.7852 60.0791 10.7109 59.376 10.7109ZM71.7744 14.0391C72.1104 14.0391 72.4268 14.0586 72.7236 14.0977C73.0205 14.1367 73.2979 14.1914 73.5557 14.2617L73.3682 15.3516C73.1104 15.2812 72.8486 15.2305 72.583 15.1992C72.3174 15.1602 72.0322 15.1406 71.7275 15.1406C71.126 15.1406 70.5869 15.2539 70.1104 15.4805C69.6416 15.707 69.2432 16.0312 68.915 16.4531C68.5869 16.875 68.3369 17.3828 68.165 17.9766C67.9932 18.5703 67.9072 19.2344 67.9072 19.9688V27H66.7119V14.2617H67.7314L67.8486 16.6641H67.9189C68.1143 16.1719 68.3877 15.7305 68.7393 15.3398C69.0986 14.9414 69.5322 14.625 70.04 14.3906C70.5479 14.1562 71.126 14.0391 71.7744 14.0391ZM77.2354 14.2617V27H76.0518V14.2617H77.2354ZM76.6611 9.55078C76.958 9.55078 77.1768 9.64062 77.3174 9.82031C77.458 9.99219 77.5283 10.2266 77.5283 10.5234C77.5283 10.8203 77.458 11.0547 77.3174 11.2266C77.1768 11.3984 76.958 11.4844 76.6611 11.4844C76.3799 11.4844 76.1689 11.3984 76.0283 11.2266C75.8877 11.0547 75.8174 10.8203 75.8174 10.5234C75.8174 10.2266 75.8877 9.99219 76.0283 9.82031C76.1689 9.64062 76.3799 9.55078 76.6611 9.55078ZM87.1377 14.0156C88.7783 14.0156 90.0479 14.5664 90.9463 15.668C91.8525 16.7695 92.3057 18.3945 92.3057 20.543C92.3057 21.9805 92.0908 23.1992 91.6611 24.1992C91.2314 25.1914 90.6182 25.9453 89.8213 26.4609C89.0322 26.9766 88.083 27.2344 86.9736 27.2344C86.208 27.2344 85.54 27.1211 84.9697 26.8945C84.4072 26.6602 83.9385 26.3477 83.5635 25.957C83.1885 25.5586 82.8994 25.1211 82.6963 24.6445H82.6143C82.6377 25.0898 82.6572 25.5547 82.6729 26.0391C82.6885 26.5234 82.6963 26.9805 82.6963 27.4102V32.6367H81.501V14.2617H82.4854L82.626 16.8047H82.6963C82.9072 16.3203 83.2041 15.8633 83.5869 15.4336C83.9697 15.0039 84.4541 14.6602 85.04 14.4023C85.626 14.1445 86.3252 14.0156 87.1377 14.0156ZM86.9854 15.0586C86.0244 15.0586 85.2236 15.2695 84.583 15.6914C83.9502 16.1055 83.4775 16.7148 83.165 17.5195C82.8604 18.3164 82.7041 19.293 82.6963 20.4492V20.6484C82.6963 21.8906 82.8486 22.9258 83.1533 23.7539C83.4658 24.5742 83.9307 25.1875 84.5479 25.5938C85.1729 26 85.9463 26.2031 86.8682 26.2031C87.7744 26.2031 88.54 25.9805 89.165 25.5352C89.79 25.0898 90.2666 24.4453 90.5947 23.6016C90.9229 22.7578 91.0869 21.7344 91.0869 20.5312C91.0869 18.7422 90.7432 17.3828 90.0557 16.4531C89.376 15.5234 88.3525 15.0586 86.9854 15.0586ZM99.2314 26.2148C99.5986 26.2148 99.9385 26.1875 100.251 26.1328C100.571 26.0781 100.853 26.0078 101.095 25.9219V26.9062C100.845 26.9922 100.552 27.0664 100.216 27.1289C99.8799 27.1992 99.5088 27.2344 99.1025 27.2344C98.3838 27.2344 97.7861 27.1016 97.3096 26.8359C96.833 26.5625 96.4736 26.1523 96.2314 25.6055C95.9893 25.0508 95.8682 24.3477 95.8682 23.4961V15.2461H93.9697V14.543L95.8564 14.1797L96.2666 11.1797H97.0518V14.2617H101.024V15.2461H97.0518V23.4258C97.0518 24.3398 97.2197 25.0352 97.5557 25.5117C97.8994 25.9805 98.458 26.2148 99.2314 26.2148ZM114.396 20.6133C114.396 21.5977 114.274 22.4961 114.032 23.3086C113.79 24.1133 113.431 24.8086 112.954 25.3945C112.478 25.9805 111.884 26.4336 111.173 26.7539C110.47 27.0742 109.649 27.2344 108.712 27.2344C107.821 27.2344 107.028 27.0781 106.333 26.7656C105.638 26.4453 105.048 25.9922 104.563 25.4062C104.087 24.8203 103.724 24.125 103.474 23.3203C103.224 22.5078 103.099 21.6055 103.099 20.6133C103.099 19.2461 103.325 18.0703 103.778 17.0859C104.239 16.0938 104.896 15.3359 105.747 14.8125C106.606 14.2812 107.634 14.0156 108.829 14.0156C110.063 14.0156 111.091 14.2969 111.911 14.8594C112.739 15.4141 113.36 16.1875 113.774 17.1797C114.188 18.1719 114.396 19.3164 114.396 20.6133ZM104.317 20.6133C104.317 21.7305 104.478 22.707 104.798 23.543C105.118 24.3789 105.603 25.0312 106.251 25.5C106.907 25.9688 107.735 26.2031 108.735 26.2031C109.759 26.2031 110.599 25.9688 111.255 25.5C111.911 25.0312 112.396 24.375 112.708 23.5312C113.021 22.6875 113.177 21.7148 113.177 20.6133C113.177 19.543 113.028 18.5898 112.731 17.7539C112.435 16.918 111.966 16.2617 111.325 15.7852C110.685 15.3008 109.849 15.0586 108.817 15.0586C107.341 15.0586 106.22 15.5508 105.454 16.5352C104.696 17.5195 104.317 18.8789 104.317 20.6133ZM123.993 27H121.169V12.2578H116.153V9.86719H128.997V12.2578H123.993V27ZM134.095 27H131.341V14.0273H134.095V27ZM136.72 8.61328V8.84766C136.532 9.07422 136.278 9.34766 135.958 9.66797C135.638 9.98047 135.29 10.3125 134.915 10.6641C134.54 11.0078 134.169 11.3398 133.802 11.6602C133.435 11.9727 133.103 12.2383 132.806 12.457H130.966V12.1523C131.224 11.8555 131.509 11.5 131.821 11.0859C132.142 10.6719 132.454 10.2461 132.759 9.80859C133.071 9.37109 133.333 8.97266 133.544 8.61328H136.72ZM142.872 25.0078C143.231 25.0078 143.587 24.9766 143.938 24.9141C144.29 24.8438 144.61 24.7617 144.899 24.668V26.7539C144.595 26.8867 144.2 27 143.716 27.0938C143.231 27.1875 142.728 27.2344 142.204 27.2344C141.47 27.2344 140.81 27.1133 140.224 26.8711C139.638 26.6211 139.173 26.1953 138.829 25.5938C138.485 24.9922 138.313 24.1602 138.313 23.0977V16.125H136.544V14.8945L138.442 13.9219L139.345 11.1445H141.079V14.0273H144.794V16.125H141.079V23.0625C141.079 23.7188 141.243 24.207 141.571 24.5273C141.899 24.8477 142.333 25.0078 142.872 25.0078ZM158.845 14.0273V27H156.677L156.302 25.2539H156.149C155.876 25.6992 155.528 26.0703 155.106 26.3672C154.685 26.6562 154.216 26.8711 153.7 27.0117C153.185 27.1602 152.642 27.2344 152.071 27.2344C151.095 27.2344 150.259 27.0703 149.563 26.7422C148.876 26.4062 148.349 25.8906 147.981 25.1953C147.614 24.5 147.431 23.6016 147.431 22.5V14.0273H150.196V21.9844C150.196 22.9922 150.399 23.7461 150.806 24.2461C151.22 24.7461 151.86 24.9961 152.728 24.9961C153.563 24.9961 154.228 24.8242 154.72 24.4805C155.212 24.1367 155.56 23.6289 155.763 22.957C155.974 22.2852 156.079 21.4609 156.079 20.4844V14.0273H158.845ZM165.56 27H162.794V8.76562H165.56V27ZM180.981 20.4844C180.981 21.5625 180.841 22.5195 180.56 23.3555C180.278 24.1914 179.868 24.8984 179.329 25.4766C178.79 26.0469 178.142 26.4844 177.384 26.7891C176.626 27.0859 175.771 27.2344 174.817 27.2344C173.927 27.2344 173.11 27.0859 172.368 26.7891C171.626 26.4844 170.981 26.0469 170.435 25.4766C169.896 24.8984 169.478 24.1914 169.181 23.3555C168.884 22.5195 168.735 21.5625 168.735 20.4844C168.735 19.0547 168.981 17.8438 169.474 16.8516C169.974 15.8516 170.685 15.0898 171.606 14.5664C172.528 14.043 173.626 13.7812 174.899 13.7812C176.095 13.7812 177.149 14.043 178.063 14.5664C178.978 15.0898 179.692 15.8516 180.208 16.8516C180.724 17.8516 180.981 19.0625 180.981 20.4844ZM171.571 20.4844C171.571 21.4297 171.685 22.2383 171.911 22.9102C172.146 23.582 172.505 24.0977 172.989 24.457C173.474 24.8086 174.099 24.9844 174.864 24.9844C175.63 24.9844 176.255 24.8086 176.739 24.457C177.224 24.0977 177.579 23.582 177.806 22.9102C178.032 22.2383 178.146 21.4297 178.146 20.4844C178.146 19.5391 178.032 18.7383 177.806 18.082C177.579 17.418 177.224 16.9141 176.739 16.5703C176.255 16.2188 175.626 16.043 174.853 16.043C173.712 16.043 172.88 16.4258 172.356 17.1914C171.833 17.957 171.571 19.0547 171.571 20.4844Z" fill="black"/>
</svg>
