<svg width="145" height="107" viewBox="0 0 145 107" fill="none" xmlns="http://www.w3.org/2000/svg">
<path d="M42.0926 18.3046C43.9145 17.9066 62.2625 6.79443 83.1444 6.52744C84.5492 6.51677 85.9532 6.59936 87.347 6.77465C99.3541 8.17881 99.5123 13.3826 100.202 13.2021C101.233 12.7906 102.132 12.107 102.805 11.2244C102.857 10.9105 101.188 4.2531 88.4273 0.997326C75.1348 -2.37463 46.1616 3.71912 43.378 5.74872C41.1087 7.20232 39.8627 19.2242 42.0926 18.3046Z" fill="#237131"/>
<path d="M42.0903 18.3144C43.9147 17.909 62.2627 6.80429 83.1422 6.5373C84.547 6.52664 85.9509 6.60922 87.3447 6.78451C99.3518 8.18867 99.51 13.3925 100.2 13.212C100.477 13.1316 100.741 13.0117 100.983 12.856C101.087 12.4951 98.5731 7.31602 88.4374 6.10468C69.3824 3.76112 40.9581 15.4814 40.9729 16.4579C41.099 17.773 41.45 18.5765 42.0903 18.3144Z" fill="#115428"/>
<path d="M83.2505 57.0547C100.338 48.3406 104.488 28.3362 104.048 23.8073C103.767 22.2375 101.576 19.978 101.082 20.6603C99.2466 27.63 95.8253 34.0812 91.085 39.5102C86.3447 44.9392 80.4137 49.1991 73.7551 51.9573C72.2274 52.8843 77.9874 58.2364 81.8315 57.6629C82.322 57.508 82.7958 57.3043 83.2456 57.0547" fill="#263369"/>
<path d="M83.2505 57.0525C89.7935 53.6233 95.169 48.3261 98.6938 41.8341C99.1313 40.8255 86.4494 44.0961 85.9402 44.5535C82.2307 47.5587 78.1319 50.0484 73.7551 51.955C72.2274 52.882 77.9874 58.2341 81.8315 57.6606C82.322 57.5057 82.7958 57.302 83.2456 57.0525" fill="#1E274A"/>
<path d="M78.5039 58.9437C74.7018 58.5556 67.33 53.8116 66.4252 43.9429C65.1372 33.4735 69.1791 16.6484 69.7576 14.1416C70.4992 10.8686 70.6698 10.8167 69.0407 10.8167C65.555 10.8167 59.1275 13.4618 58.7616 14.9129C58.4551 16.1045 55.4737 31.1028 57.1795 42.3954C57.6635 46.2916 59.0133 50.0302 61.1299 53.337C62.9392 56.1485 65.6632 58.2495 68.842 59.2854C72.0208 60.3213 75.4597 60.2286 78.5781 59.0228C78.6077 59.0228 78.5212 58.9437 78.5039 58.9412" fill="#ECC507"/>
<path d="M10.999 80.3535C9.81413 80.3535 8.75618 80.5566 7.8252 80.9629C6.89421 81.3607 6.1071 81.9277 5.46387 82.6641C4.82064 83.4004 4.32975 84.2806 3.99121 85.3047C3.65267 86.3203 3.4834 87.4417 3.4834 88.6689C3.4834 90.3617 3.75 91.8428 4.2832 93.1123C4.81641 94.3734 5.61621 95.3509 6.68262 96.0449C7.75749 96.7389 9.09473 97.0859 10.6943 97.0859C11.6253 97.0859 12.4717 97.0182 13.2334 96.8828C13.9951 96.7389 14.7018 96.557 15.3535 96.3369V97.4795C14.7357 97.708 14.0374 97.8942 13.2588 98.0381C12.4886 98.182 11.5915 98.2539 10.5674 98.2539C8.71387 98.2539 7.15658 97.8561 5.89551 97.0605C4.6429 96.265 3.69922 95.1478 3.06445 93.709C2.42969 92.2702 2.1123 90.5902 2.1123 88.6689C2.1123 87.2894 2.3112 86.0241 2.70898 84.873C3.10677 83.7135 3.68652 82.7106 4.44824 81.8643C5.21842 81.0094 6.15365 80.3493 7.25391 79.8838C8.35417 79.4098 9.60677 79.1729 11.0117 79.1729C11.9004 79.1729 12.7467 79.2617 13.5508 79.4395C14.3633 79.6087 15.125 79.8584 15.8359 80.1885L15.3281 81.3311C14.6426 80.9925 13.9401 80.7471 13.2207 80.5947C12.5013 80.4339 11.7607 80.3535 10.999 80.3535ZM24.4307 83.959C24.7946 83.959 25.1374 83.9801 25.459 84.0225C25.7806 84.0648 26.0811 84.124 26.3604 84.2002L26.1572 85.3809C25.8779 85.3047 25.5944 85.2497 25.3066 85.2158C25.0189 85.1735 24.71 85.1523 24.3799 85.1523C23.7282 85.1523 23.1442 85.2751 22.6279 85.5205C22.1201 85.766 21.6885 86.1172 21.333 86.5742C20.9775 87.0312 20.7067 87.5814 20.5205 88.2246C20.3343 88.8678 20.2412 89.5872 20.2412 90.3828V98H18.9463V84.2002H20.0508L20.1777 86.8027H20.2539C20.4655 86.2695 20.7617 85.7913 21.1426 85.3682C21.5319 84.9365 22.0016 84.5938 22.5518 84.3398C23.1019 84.0859 23.7282 83.959 24.4307 83.959ZM30.3467 84.2002V98H29.0645V84.2002H30.3467ZM29.7246 79.0967C30.0462 79.0967 30.2832 79.194 30.4355 79.3887C30.5879 79.5749 30.6641 79.8288 30.6641 80.1504C30.6641 80.472 30.5879 80.7259 30.4355 80.9121C30.2832 81.0983 30.0462 81.1914 29.7246 81.1914C29.4199 81.1914 29.1914 81.0983 29.0391 80.9121C28.8867 80.7259 28.8105 80.472 28.8105 80.1504C28.8105 79.8288 28.8867 79.5749 29.0391 79.3887C29.1914 79.194 29.4199 79.0967 29.7246 79.0967ZM41.0742 83.9336C42.8516 83.9336 44.2269 84.5303 45.2002 85.7236C46.182 86.917 46.6729 88.6774 46.6729 91.0049C46.6729 92.5622 46.4401 93.8825 45.9746 94.9658C45.5091 96.0407 44.8447 96.8574 43.9814 97.416C43.1266 97.9746 42.0983 98.2539 40.8965 98.2539C40.0671 98.2539 39.3434 98.1312 38.7256 97.8857C38.1162 97.6318 37.6084 97.2933 37.2021 96.8701C36.7959 96.4385 36.4827 95.9645 36.2627 95.4482H36.1738C36.1992 95.9307 36.2204 96.4342 36.2373 96.959C36.2542 97.4837 36.2627 97.9788 36.2627 98.4443V104.106H34.9678V84.2002H36.0342L36.1865 86.9551H36.2627C36.4912 86.4303 36.8128 85.9352 37.2275 85.4697C37.6423 85.0042 38.167 84.6318 38.8018 84.3525C39.4365 84.0732 40.194 83.9336 41.0742 83.9336ZM40.9092 85.0635C39.8682 85.0635 39.0007 85.292 38.3066 85.749C37.6211 86.1976 37.109 86.8577 36.7705 87.7295C36.4404 88.5928 36.2712 89.6507 36.2627 90.9033V91.1191C36.2627 92.4648 36.4277 93.5863 36.7578 94.4834C37.0964 95.3721 37.5999 96.0365 38.2686 96.4766C38.9456 96.9167 39.7835 97.1367 40.7822 97.1367C41.764 97.1367 42.5934 96.8955 43.2705 96.4131C43.9476 95.9307 44.4639 95.2324 44.8193 94.3184C45.1748 93.4043 45.3525 92.2956 45.3525 90.9922C45.3525 89.054 44.9801 87.5814 44.2354 86.5742C43.499 85.5671 42.3903 85.0635 40.9092 85.0635ZM54.1758 97.1494C54.5736 97.1494 54.9417 97.1198 55.2803 97.0605C55.6273 97.0013 55.932 96.9251 56.1943 96.832V97.8984C55.9235 97.9915 55.6061 98.0719 55.2422 98.1396C54.8783 98.2158 54.4762 98.2539 54.0361 98.2539C53.2575 98.2539 52.61 98.11 52.0938 97.8223C51.5775 97.526 51.1882 97.0817 50.9258 96.4893C50.6634 95.8883 50.5322 95.1266 50.5322 94.2041V85.2666H48.4756V84.5049L50.5195 84.1113L50.9639 80.8613H51.8145V84.2002H56.1182V85.2666H51.8145V94.1279C51.8145 95.1182 51.9964 95.8714 52.3604 96.3877C52.7327 96.8955 53.3379 97.1494 54.1758 97.1494ZM70.6035 91.0811C70.6035 92.1475 70.4723 93.1208 70.21 94.001C69.9476 94.8727 69.5583 95.626 69.042 96.2607C68.5257 96.8955 67.8825 97.3864 67.1123 97.7334C66.3506 98.0804 65.4619 98.2539 64.4463 98.2539C63.4814 98.2539 62.6224 98.0846 61.8691 97.7461C61.1159 97.3991 60.4769 96.9082 59.9521 96.2734C59.4359 95.6387 59.0423 94.8854 58.7715 94.0137C58.5007 93.1335 58.3652 92.1559 58.3652 91.0811C58.3652 89.5999 58.6107 88.3262 59.1016 87.2598C59.6009 86.1849 60.3118 85.3639 61.2344 84.7969C62.1654 84.2214 63.2783 83.9336 64.5732 83.9336C65.9105 83.9336 67.0234 84.2383 67.9121 84.8477C68.8092 85.4486 69.4821 86.2865 69.9307 87.3613C70.3792 88.4362 70.6035 89.6761 70.6035 91.0811ZM59.6855 91.0811C59.6855 92.2913 59.859 93.3493 60.2061 94.2549C60.5531 95.1605 61.0778 95.8672 61.7803 96.375C62.4912 96.8828 63.3883 97.1367 64.4717 97.1367C65.5804 97.1367 66.4902 96.8828 67.2012 96.375C67.9121 95.8672 68.4368 95.1562 68.7754 94.2422C69.1139 93.3281 69.2832 92.2744 69.2832 91.0811C69.2832 89.9215 69.1224 88.889 68.8008 87.9834C68.4792 87.0778 67.9714 86.3669 67.2773 85.8506C66.5833 85.3258 65.6777 85.0635 64.5605 85.0635C62.9609 85.0635 61.7464 85.5967 60.917 86.6631C60.096 87.7295 59.6855 89.2021 59.6855 91.0811ZM81.001 98H77.9414V82.0293H72.5078V79.4395H86.4219V82.0293H81.001V98ZM91.9443 98H88.9609V83.9463H91.9443V98ZM94.7881 78.0811V78.335C94.585 78.5804 94.3099 78.8766 93.9629 79.2236C93.6159 79.5622 93.2393 79.9219 92.833 80.3027C92.4268 80.6751 92.0247 81.0348 91.627 81.3818C91.2292 81.7204 90.8695 82.0081 90.5479 82.2451H88.5547V81.915C88.834 81.5934 89.1429 81.2083 89.4814 80.7598C89.8285 80.3112 90.167 79.8499 90.4971 79.376C90.8356 78.902 91.1191 78.4704 91.3477 78.0811H94.7881ZM101.453 95.8418C101.842 95.8418 102.228 95.8079 102.608 95.7402C102.989 95.6641 103.336 95.5752 103.649 95.4736V97.7334C103.319 97.8773 102.892 98 102.367 98.1016C101.842 98.2031 101.297 98.2539 100.729 98.2539C99.9339 98.2539 99.2188 98.1227 98.584 97.8604C97.9492 97.5895 97.4456 97.1283 97.0732 96.4766C96.7008 95.8249 96.5146 94.9235 96.5146 93.7725V86.2188H94.5977V84.8857L96.6543 83.832L97.6318 80.8232H99.5107V83.9463H103.535V86.2188H99.5107V93.7344C99.5107 94.4453 99.6885 94.9743 100.044 95.3213C100.399 95.6683 100.869 95.8418 101.453 95.8418ZM118.757 83.9463V98H116.408L116.002 96.1084H115.837C115.541 96.5908 115.164 96.9928 114.707 97.3145C114.25 97.6276 113.742 97.8604 113.184 98.0127C112.625 98.1735 112.037 98.2539 111.419 98.2539C110.361 98.2539 109.455 98.0762 108.702 97.7207C107.957 97.3568 107.386 96.7982 106.988 96.0449C106.59 95.2917 106.392 94.3184 106.392 93.125V83.9463H109.388V92.5664C109.388 93.6582 109.608 94.4749 110.048 95.0166C110.496 95.5583 111.19 95.8291 112.13 95.8291C113.035 95.8291 113.755 95.6429 114.288 95.2705C114.821 94.8981 115.198 94.348 115.418 93.6201C115.646 92.8923 115.761 91.9993 115.761 90.9414V83.9463H118.757ZM126.031 98H123.035V78.2461H126.031V98ZM142.738 90.9414C142.738 92.1094 142.586 93.1462 142.281 94.0518C141.977 94.9574 141.532 95.7233 140.948 96.3496C140.364 96.9674 139.662 97.4414 138.841 97.7715C138.02 98.0931 137.093 98.2539 136.061 98.2539C135.096 98.2539 134.211 98.0931 133.407 97.7715C132.603 97.4414 131.905 96.9674 131.312 96.3496C130.729 95.7233 130.276 94.9574 129.954 94.0518C129.632 93.1462 129.472 92.1094 129.472 90.9414C129.472 89.3926 129.738 88.0807 130.271 87.0059C130.813 85.9225 131.583 85.0973 132.582 84.5303C133.581 83.9632 134.77 83.6797 136.149 83.6797C137.444 83.6797 138.587 83.9632 139.577 84.5303C140.567 85.0973 141.342 85.9225 141.9 87.0059C142.459 88.0892 142.738 89.401 142.738 90.9414ZM132.544 90.9414C132.544 91.9655 132.667 92.8415 132.912 93.5693C133.166 94.2972 133.555 94.8558 134.08 95.2451C134.605 95.626 135.282 95.8164 136.111 95.8164C136.941 95.8164 137.618 95.626 138.143 95.2451C138.667 94.8558 139.052 94.2972 139.298 93.5693C139.543 92.8415 139.666 91.9655 139.666 90.9414C139.666 89.9173 139.543 89.0498 139.298 88.3389C139.052 87.6195 138.667 87.0736 138.143 86.7012C137.618 86.3203 136.937 86.1299 136.099 86.1299C134.863 86.1299 133.962 86.5446 133.395 87.374C132.827 88.2035 132.544 89.3926 132.544 90.9414Z" fill="black"/>
</svg>
